<?xml version="1.0" encoding="UTF-8" standalone="no"?>
<!DOCTYPE svg PUBLIC "-//W3C//DTD SVG 1.1//EN" "http://www.w3.org/Graphics/SVG/1.1/DTD/svg11.dtd">
<!-- Created with Vectornator (http://vectornator.io/) -->
<svg height="100%" stroke-miterlimit="10" style="fill-rule:nonzero;clip-rule:evenodd;stroke-linecap:round;stroke-linejoin:round;" version="1.1" viewBox="296.818 736.75 293.753 293.753" width="100%" xml:space="preserve" xmlns="http://www.w3.org/2000/svg" xmlns:vectornator="http://vectornator.io" xmlns:xlink="http://www.w3.org/1999/xlink">
<defs/>
<g id="Layer-3" vectornator:layerName="Layer 3">
<g opacity="1" vectornator:layerName="Group 5">
<path d="M307.104 883.626C307.104 808.189 368.258 747.035 443.695 747.035C519.132 747.035 580.286 808.189 580.286 883.626C580.286 959.063 519.132 1020.22 443.695 1020.22C368.258 1020.22 307.104 959.063 307.104 883.626Z" fill="none" opacity="0.995245" stroke="#b3c3d5" stroke-linecap="butt" stroke-linejoin="round" stroke-width="20.5707" vectornator:layerName="Oval 1"/>
<path d="M362.26 904.825L362.26 914.973C362.26 918.78 365.682 922.036 372.509 924.736C379.337 927.435 387.585 928.776 397.214 928.776L498.048 928.776C507.852 928.776 516.191 927.435 523.106 924.736C530.021 922.036 533.497 918.78 533.497 914.973L533.497 904.825L509.852 904.825L509.852 912.478C509.852 914.485 508.195 916.14 504.869 917.455C501.543 918.77 497.328 919.441 492.251 919.441L423.474 919.441C418.572 919.441 414.412 918.764 410.998 917.414C407.584 916.064 405.873 914.375 405.873 912.367L405.873 904.825L362.26 904.825Z" fill="#ff6b73" fill-rule="nonzero" opacity="1" stroke="#b3c3d5" stroke-linecap="butt" stroke-linejoin="round" stroke-width="5.24482" vectornator:layerName="Curve 1"/>
<path d="M408.39 866.938C400.315 866.938 393.398 868.277 387.672 870.946C381.946 873.616 379.106 876.835 379.106 880.599L379.106 900.315L415.652 900.315L415.652 882.849C415.652 880.864 417.042 879.268 419.831 878.036C422.621 876.804 426.155 876.182 430.413 876.182L488.567 876.182C492.531 876.182 495.885 876.872 498.675 878.241C501.464 879.61 502.854 881.219 502.854 883.067L502.854 900.315L522.683 900.315L522.683 880.804C522.683 876.971 519.859 873.704 514.206 871.001C508.553 868.297 501.681 866.938 493.606 866.938L408.39 866.938Z" fill="#ff6b73" fill-rule="nonzero" opacity="1" stroke="#b3c3d5" stroke-linecap="butt" stroke-linejoin="round" stroke-width="5.24482" vectornator:layerName="Curve 2"/>
<path d="M447.878 860.709L450.894 860.709L450.894 866.938L447.878 866.938L447.878 860.709Z" fill="#ff6b73" fill-rule="nonzero" opacity="1" stroke="#b3c3d5" stroke-linecap="butt" stroke-linejoin="round" stroke-width="19.989" vectornator:layerName="Rectangle 1"/>
<path d="M438.003 801.555C438.003 799.211 439.905 797.312 442.25 797.312L445.14 797.312C447.485 797.312 449.386 799.211 449.386 801.555L449.386 828.232C449.386 830.576 447.485 832.475 445.14 832.475L442.25 832.475C439.905 832.475 438.003 830.576 438.003 828.232L438.003 801.555Z" fill="#ff6b73" fill-rule="nonzero" opacity="1" stroke="#b3c3d5" stroke-linecap="butt" stroke-linejoin="round" stroke-width="4.64845" vectornator:layerName="Rectangle 2"/>
<g opacity="1" vectornator:layerName="Group 1">
<path d="M423.421 823.385C423.421 822.673 428.302 822.096 434.323 822.096C440.344 822.096 445.226 822.673 445.226 823.385C445.226 824.096 440.344 824.673 434.323 824.673C428.302 824.673 423.421 824.096 423.421 823.385Z" fill="#ff6b73" fill-rule="nonzero" opacity="1" stroke="#b3c3d5" stroke-linecap="butt" stroke-linejoin="round" stroke-width="8.15039" vectornator:layerName="Oval 1"/>
<path d="M432.331 832.375C432.331 828.122 433.226 824.673 434.33 824.673C435.435 824.673 436.33 828.122 436.33 832.375C436.33 836.629 435.435 840.078 434.33 840.078C433.226 840.078 432.331 836.629 432.331 832.375Z" fill="#ff6b73" fill-rule="nonzero" opacity="1" stroke="#b3c3d5" stroke-linecap="butt" stroke-linejoin="round" stroke-width="8.15039" vectornator:layerName="Oval 4"/>
<path d="M440.594 834.708C440.594 830.209 441.46 826.561 442.527 826.561C443.594 826.561 444.459 830.209 444.459 834.708C444.459 839.207 443.594 842.855 442.527 842.855C441.46 842.855 440.594 839.207 440.594 834.708Z" fill="#ff6b73" fill-rule="nonzero" opacity="1" stroke="#b3c3d5" stroke-linecap="butt" stroke-linejoin="round" stroke-width="8.15039" vectornator:layerName="Oval 5"/>
<path d="M448.699 832.375C448.699 828.122 449.341 824.673 450.132 824.673C450.923 824.673 451.565 828.122 451.565 832.375C451.565 836.629 450.923 840.078 450.132 840.078C449.341 840.078 448.699 836.629 448.699 832.375Z" fill="#ff6b73" fill-rule="nonzero" opacity="1" stroke="#b3c3d5" stroke-linecap="butt" stroke-linejoin="round" stroke-width="8.15039" vectornator:layerName="Oval 6"/>
<path d="M455.055 832.375C455.055 829.727 455.741 827.58 456.587 827.58C457.434 827.58 458.12 829.727 458.12 832.375C458.12 835.024 457.434 837.171 456.587 837.171C455.741 837.171 455.055 835.024 455.055 832.375Z" fill="#ff6b73" fill-rule="nonzero" opacity="1" stroke="#b3c3d5" stroke-linecap="butt" stroke-linejoin="round" stroke-width="8.15039" vectornator:layerName="Oval 2"/>
</g>
</g>
</g>
</svg>
