<?xml version="1.0" encoding="UTF-8" standalone="no"?>
<!DOCTYPE svg PUBLIC "-//W3C//DTD SVG 1.1//EN" "http://www.w3.org/Graphics/SVG/1.1/DTD/svg11.dtd">
<!-- Created with Vectornator (http://vectornator.io/) -->
<svg height="100%" stroke-miterlimit="10" style="fill-rule:nonzero;clip-rule:evenodd;stroke-linecap:round;stroke-linejoin:round;" version="1.1" viewBox="0 445.961 2085.83 188.079" width="100%" xml:space="preserve" xmlns="http://www.w3.org/2000/svg" xmlns:vectornator="http://vectornator.io" xmlns:xlink="http://www.w3.org/1999/xlink">
<defs/>
<g id="Layer-2" vectornator:layerName="Layer 2">
<g opacity="1" vectornator:layerName="Group 4">
<path d="M596.155 600.121C596.155 608.749 593.098 616.122 586.983 622.24C580.869 628.358 573.477 631.417 564.809 631.417L475.647 631.417C467.133 631.417 459.858 628.358 453.821 622.24C447.784 616.122 444.765 608.749 444.765 600.121L444.765 509.763C444.765 501.135 447.784 493.762 453.821 487.644C459.858 481.526 467.133 478.467 475.647 478.467L565.505 478.467C574.019 478.467 581.256 481.565 587.215 487.762C593.175 493.958 596.155 501.449 596.155 510.234L596.155 516.116C596.155 519.254 595.11 521.96 593.02 524.234C590.93 526.509 588.415 527.646 585.474 527.646C582.378 527.646 579.901 526.509 578.044 524.234C576.186 521.96 575.257 519.254 575.257 516.116C575.257 511.567 573.787 507.684 570.846 504.469C567.905 501.253 564.344 499.645 560.165 499.645L498.866 499.645C494.377 499.645 490.662 501.057 487.721 503.88C484.78 506.704 483.309 510.39 483.309 514.94L483.309 594.238C483.309 598.788 484.819 602.592 487.837 605.651C490.856 608.71 494.532 610.239 498.866 610.239L559.701 610.239C564.035 610.239 567.711 608.553 570.73 605.18C573.748 601.808 575.257 597.847 575.257 593.297C575.257 590.16 576.264 587.454 578.276 585.179C580.288 582.904 582.765 581.767 585.706 581.767C588.647 581.767 591.124 582.904 593.136 585.179C595.149 587.454 596.155 590.16 596.155 593.297L596.155 600.121Z" fill="#ff6b73" fill-rule="nonzero" opacity="1" stroke="#b3c3d5" stroke-linecap="butt" stroke-linejoin="round" stroke-width="5.24482"/>
<path d="M687.871 631.417C685.858 631.417 684.04 630.594 682.414 628.946C680.789 627.299 679.976 625.456 679.976 623.417L679.976 499.645L634.467 499.645C631.525 499.645 629.01 498.586 626.92 496.468C624.831 494.35 623.786 491.801 623.786 488.821C623.786 485.997 624.831 483.565 626.92 481.526C629.01 479.487 631.525 478.467 634.467 478.467L764.726 478.467C767.667 478.467 770.144 479.487 772.156 481.526C774.169 483.565 775.175 486.075 775.175 489.056C775.175 492.036 774.169 494.546 772.156 496.586C770.144 498.625 767.667 499.645 764.726 499.645L718.52 499.645L718.52 623.417C718.52 625.456 717.669 627.299 715.966 628.946C714.263 630.594 712.483 631.417 710.626 631.417L687.871 631.417Z" fill="#ff6b73" fill-rule="nonzero" opacity="1" stroke="#b3c3d5" stroke-linecap="butt" stroke-linejoin="round" stroke-width="5.24482"/>
<path d="M860.39 499.645C855.9 499.645 852.185 501.057 849.244 503.88C846.303 506.704 844.833 510.39 844.833 514.94L844.833 594.238C844.833 598.788 846.342 602.592 849.36 605.651C852.379 608.71 856.055 610.239 860.39 610.239L921.224 610.239C925.713 610.239 929.428 608.749 932.369 605.769C935.31 602.788 936.781 599.023 936.781 594.474L936.781 515.41C936.781 511.175 935.31 507.488 932.369 504.351C929.428 501.213 925.868 499.645 921.688 499.645L860.39 499.645ZM837.17 631.417C828.657 631.417 821.381 628.358 815.344 622.24C809.307 616.122 806.289 608.749 806.289 600.121L806.289 509.763C806.289 501.135 809.307 493.762 815.344 487.644C821.381 481.526 828.657 478.467 837.17 478.467L927.029 478.467C935.542 478.467 942.779 481.565 948.739 487.762C954.698 493.958 957.678 501.449 957.678 510.234L957.678 600.121C957.678 608.749 954.621 616.122 948.506 622.24C942.392 628.358 935.001 631.417 926.332 631.417L837.17 631.417Z" fill="#ff6b73" fill-rule="nonzero" opacity="1" stroke="#b3c3d5" stroke-linecap="butt" stroke-linejoin="round" stroke-width="5.24482"/>
<path d="M993.203 478.467L1129.27 478.467C1131.28 478.467 1133.02 479.251 1134.49 480.82C1135.96 482.389 1136.7 484.271 1136.7 486.467L1136.7 620.358C1136.7 623.495 1135.73 626.123 1133.8 628.24C1131.86 630.358 1129.5 631.417 1126.71 631.417C1123.77 631.417 1121.22 630.319 1119.05 628.123C1116.88 625.927 1115.8 623.338 1115.8 620.358L1115.8 509.998C1115.65 507.175 1114.76 504.743 1113.13 502.704C1111.51 500.664 1109.53 499.645 1107.21 499.645L1034.07 499.645C1031.28 499.802 1028.88 500.86 1026.87 502.821C1024.86 504.782 1023.85 507.175 1023.85 509.998L1023.85 623.887C1023.85 625.927 1023.08 627.691 1021.53 629.182C1019.98 630.672 1018.13 631.417 1015.96 631.417L993.203 631.417C991.036 631.417 989.179 630.672 987.631 629.182C986.083 627.691 985.309 625.927 985.309 623.887L985.309 486.467C985.309 484.271 986.083 482.389 987.631 480.82C989.179 479.251 991.036 478.467 993.203 478.467Z" fill="#ff6b73" fill-rule="nonzero" opacity="1" stroke="#b3c3d5" stroke-linecap="butt" stroke-linejoin="round" stroke-width="5.24482"/>
<path d="M1218.66 499.645C1214.17 499.645 1210.46 501.057 1207.52 503.88C1204.58 506.704 1203.11 510.39 1203.11 514.94L1203.11 594.238C1203.11 598.788 1204.61 602.592 1207.63 605.651C1210.65 608.71 1214.33 610.239 1218.66 610.239L1279.5 610.239C1283.99 610.239 1287.7 608.749 1290.64 605.769C1293.58 602.788 1295.05 599.023 1295.05 594.474L1295.05 515.41C1295.05 511.175 1293.58 507.488 1290.64 504.351C1287.7 501.213 1284.14 499.645 1279.96 499.645L1218.66 499.645ZM1195.44 631.417C1186.93 631.417 1179.65 628.358 1173.62 622.24C1167.58 616.122 1164.56 608.749 1164.56 600.121L1164.56 509.763C1164.56 501.135 1167.58 493.762 1173.62 487.644C1179.65 481.526 1186.93 478.467 1195.44 478.467L1285.3 478.467C1293.82 478.467 1301.05 481.565 1307.01 487.762C1312.97 493.958 1315.95 501.449 1315.95 510.234L1315.95 600.121C1315.95 608.749 1312.89 616.122 1306.78 622.24C1300.66 628.358 1293.27 631.417 1284.6 631.417L1195.44 631.417Z" fill="#ff6b73" fill-rule="nonzero" opacity="1" stroke="#b3c3d5" stroke-linecap="butt" stroke-linejoin="round" stroke-width="5.24482"/>
<path d="M1446.21 621.769L1446.21 497.292L1392.81 497.292L1392.81 599.886C1392.81 608.514 1390.02 615.926 1384.45 622.122C1378.87 628.319 1372.22 631.417 1364.48 631.417L1340.33 631.417C1337.39 631.417 1334.87 630.358 1332.78 628.24C1330.69 626.123 1329.65 623.573 1329.65 620.593C1329.65 617.612 1330.69 615.063 1332.78 612.945C1334.87 610.828 1337.39 609.769 1340.33 609.769C1344.2 609.769 1347.49 608.278 1350.2 605.298C1352.91 602.317 1354.26 598.709 1354.26 594.474L1354.26 485.997C1354.26 483.958 1355.04 482.193 1356.58 480.702C1358.13 479.212 1359.99 478.467 1362.16 478.467L1460.14 478.467C1462.31 478.467 1464.17 479.251 1465.71 480.82C1467.26 482.389 1468.04 484.271 1468.04 486.467L1468.04 621.769C1468.04 624.75 1466.95 627.103 1464.79 628.829C1462.62 630.554 1460.06 631.417 1457.12 631.417C1454.18 631.417 1451.63 630.554 1449.46 628.829C1447.29 627.103 1446.21 624.75 1446.21 621.769Z" fill="#ff6b73" fill-rule="nonzero" opacity="1" stroke="#b3c3d5" stroke-linecap="butt" stroke-linejoin="round" stroke-width="5.24482"/>
<path d="M1626.39 516.587L1538.62 623.417C1535.68 628.75 1531.66 631.417 1526.55 631.417L1503.79 631.417C1501.63 631.417 1499.77 630.633 1498.22 629.064C1496.67 627.495 1495.9 625.613 1495.9 623.417L1495.9 486.467C1495.9 484.271 1496.67 482.389 1498.22 480.82C1499.77 479.251 1501.63 478.467 1503.79 478.467L1526.55 478.467C1528.72 478.467 1530.57 479.212 1532.12 480.702C1533.67 482.193 1534.44 484.036 1534.44 486.232L1534.44 595.415L1626.39 485.056C1629.33 480.663 1632.74 478.467 1636.61 478.467C1639.55 478.467 1642.06 479.526 1644.15 481.644C1646.24 483.761 1647.29 486.311 1647.29 489.291L1647.29 621.064C1647.29 623.887 1646.28 626.319 1644.27 628.358C1642.26 630.397 1639.78 631.417 1636.84 631.417C1633.9 631.417 1631.42 630.397 1629.41 628.358C1627.4 626.319 1626.39 623.887 1626.39 621.064L1626.39 516.587Z" fill="#ff6b73" fill-rule="nonzero" opacity="1" stroke="#b3c3d5" stroke-linecap="butt" stroke-linejoin="round" stroke-width="5.24482"/>
<path d="M1826.54 600.121C1826.54 608.749 1823.48 616.122 1817.37 622.24C1811.26 628.358 1803.86 631.417 1795.2 631.417L1706.03 631.417C1697.52 631.417 1690.24 628.358 1684.21 622.24C1678.17 616.122 1675.15 608.749 1675.15 600.121L1675.15 509.763C1675.15 501.135 1678.17 493.762 1684.21 487.644C1690.24 481.526 1697.52 478.467 1706.03 478.467L1795.89 478.467C1804.41 478.467 1811.64 481.565 1817.6 487.762C1823.56 493.958 1826.54 501.449 1826.54 510.234L1826.54 516.116C1826.54 519.254 1825.5 521.96 1823.41 524.234C1821.32 526.509 1818.8 527.646 1815.86 527.646C1812.76 527.646 1810.29 526.509 1808.43 524.234C1806.57 521.96 1805.64 519.254 1805.64 516.116C1805.64 511.567 1804.17 507.684 1801.23 504.469C1798.29 501.253 1794.73 499.645 1790.55 499.645L1729.25 499.645C1724.76 499.645 1721.05 501.057 1718.11 503.88C1715.17 506.704 1713.7 510.39 1713.7 514.94L1713.7 594.238C1713.7 598.788 1715.21 602.592 1718.22 605.651C1721.24 608.71 1724.92 610.239 1729.25 610.239L1790.09 610.239C1794.42 610.239 1798.1 608.553 1801.12 605.18C1804.13 601.808 1805.64 597.847 1805.64 593.297C1805.64 590.16 1806.65 587.454 1808.66 585.179C1810.67 582.904 1813.15 581.767 1816.09 581.767C1819.03 581.767 1821.51 582.904 1823.52 585.179C1825.54 587.454 1826.54 590.16 1826.54 593.297L1826.54 600.121Z" fill="#ff6b73" fill-rule="nonzero" opacity="1" stroke="#b3c3d5" stroke-linecap="butt" stroke-linejoin="round" stroke-width="5.24482"/>
<g opacity="1" vectornator:layerName="Group 3">
<path d="M293.396 469.761L162.516 469.761C158.57 469.761 155.172 470.937 152.322 473.29C149.472 475.643 148.047 478.467 148.047 481.761L148.047 623.887C148.047 625.77 146.896 627.495 144.594 629.064C142.292 630.633 139.826 631.417 137.195 631.417L104.639 631.417C102.009 631.417 99.4875 630.554 97.0759 628.829C94.6644 627.103 93.4587 625.378 93.4587 623.652L93.4587 469.761C93.4587 463.956 96.3086 458.976 102.009 454.819C107.709 450.661 114.724 448.583 123.055 448.583L293.396 448.583C297.342 448.583 300.74 449.642 303.59 451.76C306.44 453.877 307.865 456.427 307.865 459.407C307.865 462.231 306.44 464.662 303.59 466.702C300.74 468.741 297.342 469.761 293.396 469.761Z" fill="#ff6b73" fill-rule="nonzero" opacity="0.995245" stroke="#b3c3d5" stroke-linecap="butt" stroke-linejoin="round" stroke-width="5.24482"/>
<path d="M188.916 599.249L188.916 612.879C188.916 617.992 193.508 622.365 202.671 625.991C211.833 629.617 222.903 631.417 235.825 631.417L371.145 631.417C384.302 631.417 395.494 629.617 404.774 625.991C414.054 622.365 418.719 617.992 418.719 612.879L418.719 599.249L386.987 599.249L386.987 609.527C386.987 612.223 384.764 614.446 380.3 616.213C375.836 617.979 370.18 618.88 363.367 618.88L271.066 618.88C264.488 618.88 258.904 617.97 254.323 616.157C249.741 614.344 247.445 612.075 247.445 609.379L247.445 599.249L188.916 599.249Z" fill="#ff6b73" fill-rule="nonzero" opacity="1" stroke="#b3c3d5" stroke-linecap="butt" stroke-linejoin="round" stroke-width="5.24482" vectornator:layerName="Curve 1"/>
<path d="M250.824 548.365C239.987 548.365 230.703 550.164 223.019 553.749C215.334 557.334 211.523 561.658 211.523 566.713L211.523 593.192L260.569 593.192L260.569 569.735C260.569 567.069 262.434 564.925 266.178 563.271C269.921 561.616 274.664 560.78 280.378 560.78L358.422 560.78C363.742 560.78 368.243 561.707 371.987 563.545C375.73 565.384 377.595 567.546 377.595 570.028L377.595 593.192L404.207 593.192L404.207 566.988C404.207 561.84 400.416 557.453 392.83 553.822C385.244 550.191 376.022 548.365 365.185 548.365L250.824 548.365Z" fill="#ff6b73" fill-rule="nonzero" opacity="1" stroke="#b3c3d5" stroke-linecap="butt" stroke-linejoin="round" stroke-width="5.24482" vectornator:layerName="Curve 2"/>
<path d="M303.817 540L307.865 540L307.865 548.365L303.817 548.365L303.817 540Z" fill="#ff6b73" fill-rule="nonzero" opacity="1" stroke="#b3c3d5" stroke-linecap="butt" stroke-linejoin="round" stroke-width="19.989" vectornator:layerName="Rectangle 1"/>
<path d="M290.565 460.553C290.565 457.405 293.116 454.854 296.264 454.854L300.142 454.854C303.29 454.854 305.841 457.405 305.841 460.553L305.841 496.382C305.841 499.529 303.29 502.08 300.142 502.08L296.264 502.08C293.116 502.08 290.565 499.529 290.565 496.382L290.565 460.553Z" fill="#ff6b73" fill-rule="nonzero" opacity="1" stroke="#b3c3d5" stroke-linecap="butt" stroke-linejoin="round" stroke-width="4.64845" vectornator:layerName="Rectangle 2"/>
<g opacity="1" vectornator:layerName="Group 1">
<path d="M270.995 489.871C270.995 488.915 277.546 488.141 285.626 488.141C293.707 488.141 300.257 488.915 300.257 489.871C300.257 490.827 293.707 491.601 285.626 491.601C277.546 491.601 270.995 490.827 270.995 489.871Z" fill="#ff6b73" fill-rule="nonzero" opacity="1" stroke="#b3c3d5" stroke-linecap="butt" stroke-linejoin="round" stroke-width="8.15039" vectornator:layerName="Oval 1"/>
<path d="M282.953 501.946C282.953 496.233 284.154 491.601 285.636 491.601C287.117 491.601 288.319 496.233 288.319 501.946C288.319 507.66 287.117 512.291 285.636 512.291C284.154 512.291 282.953 507.66 282.953 501.946Z" fill="#ff6b73" fill-rule="nonzero" opacity="1" stroke="#b3c3d5" stroke-linecap="butt" stroke-linejoin="round" stroke-width="8.15039" vectornator:layerName="Oval 4"/>
<path d="M294.042 505.079C294.042 499.036 295.203 494.137 296.635 494.137C298.068 494.137 299.229 499.036 299.229 505.079C299.229 511.122 298.068 516.02 296.635 516.02C295.203 516.02 294.042 511.122 294.042 505.079Z" fill="#ff6b73" fill-rule="nonzero" opacity="1" stroke="#b3c3d5" stroke-linecap="butt" stroke-linejoin="round" stroke-width="8.15039" vectornator:layerName="Oval 5"/>
<path d="M304.919 501.946C304.919 496.233 305.78 491.601 306.842 491.601C307.904 491.601 308.765 496.233 308.765 501.946C308.765 507.66 307.904 512.291 306.842 512.291C305.78 512.291 304.919 507.66 304.919 501.946Z" fill="#ff6b73" fill-rule="nonzero" opacity="1" stroke="#b3c3d5" stroke-linecap="butt" stroke-linejoin="round" stroke-width="8.15039" vectornator:layerName="Oval 6"/>
<path d="M313.448 501.946C313.448 498.389 314.369 495.506 315.505 495.506C316.641 495.506 317.562 498.389 317.562 501.946C317.562 505.503 316.641 508.387 315.505 508.387C314.369 508.387 313.448 505.503 313.448 501.946Z" fill="#ff6b73" fill-rule="nonzero" opacity="1" stroke="#b3c3d5" stroke-linecap="butt" stroke-linejoin="round" stroke-width="8.15039" vectornator:layerName="Oval 2"/>
</g>
</g>
</g>
<path d="M-244.535 448.583C-244.535 448.583-246.883 448.583-249.781 448.583C-252.678 448.583-255.027 448.583-255.027 448.583C-255.027 448.583-252.678 448.583-249.781 448.583C-246.883 448.583-244.535 448.583-244.535 448.583Z" fill="#ff6b73" fill-rule="nonzero" opacity="0.995245" stroke="#b3c3d5" stroke-linecap="butt" stroke-linejoin="round" stroke-width="3.27801" vectornator:layerName="Oval 2"/>
</g>
</svg>
